{
    "accessors" : [
        {
            "bufferView" : 0,
            "componentType" : 5123,
            "count" : 22230,
            "max" : [
                4643
            ],
            "min" : [
                0
            ],
            "type" : "SCALAR"
        },
        {
            "bufferView" : 1,
            "componentType" : 5126,
            "count" : 4644,
            "max" : [
                23.661766052246094,
                39.21998596191406,
                2.1431119441986084
            ],
            "min" : [
                -30.09785270690918,
                -29.51304054260254,
                -100.57121276855469
            ],
            "type" : "VEC3"
        },
        {
            "bufferView" : 2,
            "componentType" : 5126,
            "count" : 4644,
            "max" : [
                0.99969482421875,
                0.999298095703125,
                0.999908447265625
            ],
            "min" : [
                -0.999908447265625,
                -0.9996337890625,
                -0.999969482421875
            ],
            "type" : "VEC3"
        },
        {
            "bufferView" : 3,
            "componentType" : 5126,
            "count" : 4644,
            "max" : [
                0.9999998211860657,
                0.9988981485366821,
                0.9996840357780457,
                1.0
            ],
            "min" : [
                -0.9999925494194031,
                -0.999812126159668,
                -0.9990289211273193,
                1.0
            ],
            "type" : "VEC4"
        },
        {
            "bufferView" : 4,
            "componentType" : 5126,
            "count" : 4644,
            "max" : [
                1.0003750324249268,
                0.9954229998402297
            ],
            "min" : [
                0.0037879999727010727,
                0.0030750036239624023
            ],
            "type" : "VEC2"
        }
    ],
    "asset" : {
        "generator" : "Khronos Blender glTF 2.0 exporter",
        "version" : "2.0"
    },
    "bufferViews" : [
        {
            "buffer" : 0,
            "byteLength" : 44460,
            "byteOffset" : 0,
            "target" : 34963
        },
        {
            "buffer" : 0,
            "byteLength" : 55728,
            "byteOffset" : 44460,
            "target" : 34962
        },
        {
            "buffer" : 0,
            "byteLength" : 55728,
            "byteOffset" : 100188,
            "target" : 34962
        },
        {
            "buffer" : 0,
            "byteLength" : 74304,
            "byteOffset" : 155916,
            "target" : 34962
        },
        {
            "buffer" : 0,
            "byteLength" : 37152,
            "byteOffset" : 230220,
            "target" : 34962
        }
    ],
    "buffers" : [
        {
            "byteLength" : 267372,
            "uri" : "jaguar.bin"
        }
    ],
    "images" : [
        {
            "name" : "Jaguar_Material_Normal",
            "uri" : "Jaguar_Material_Normal.jpg"
        },
        {
            "name" : "Jaguar_Material_Roughness",
            "uri" : "Jaguar_Material_Roughness.jpg"
        },
        {
            "name" : "Jaguar_Material_BaseColor",
            "uri" : "Jaguar_Material_BaseColor.jpg"
        }
    ],
    "materials" : [
        {
            "name" : "jaguar",
            "normalTexture" : {
                "index" : 0
            },
            "pbrMetallicRoughness" : {
                "baseColorTexture" : {
                    "index" : 2
                },
                "metallicRoughnessTexture" : {
                    "index" : 1
                }
            }
        }
    ],
    "meshes" : [
        {
            "name" : "Jaguar",
            "primitives" : [
                {
                    "attributes" : {
                        "NORMAL" : 2,
                        "POSITION" : 1,
                        "TANGENT" : 3,
                        "TEXCOORD_0" : 4
                    },
                    "indices" : 0,
                    "material" : 0
                }
            ]
        }
    ],
    "nodes" : [
        {
            "mesh" : 0,
            "name" : "Jaguar",
            "rotation" : [
                0.7071068286895752,
                0.0,
                -0.0,
                0.7071068286895752
            ]
        }
    ],
    "samplers" : [
        {}
    ],
    "scene" : 0,
    "scenes" : [
        {
            "name" : "Scene",
            "nodes" : [
                0
            ]
        }
    ],
    "textures" : [
        {
            "sampler" : 0,
            "source" : 0
        },
        {
            "sampler" : 0,
            "source" : 1
        },
        {
            "sampler" : 0,
            "source" : 2
        }
    ]
}
