<?xml version="1.0" standalone="no"?>
<!DOCTYPE svg PUBLIC "-//W3C//DTD SVG 20010904//EN"
 "http://www.w3.org/TR/2001/REC-SVG-20010904/DTD/svg10.dtd">
<svg version="1.0" xmlns="http://www.w3.org/2000/svg"
 width="550.000000pt" height="550.000000pt" viewBox="0 0 550.000000 550.000000"
 preserveAspectRatio="xMidYMid meet">
<metadata>
Created by potrace 1.11, written by Peter Selinger 2001-2013
</metadata>
<g transform="translate(0.000000,550.000000) scale(0.100000,-0.100000)"
fill="#000000" stroke="none">
<path d="M1495 4339 l0 -429 -290 -1 c-159 -1 -292 -1 -295 -1 -3 0 -5 -187
-5 -416 1 -229 -1 -423 -3 -429 -3 -10 -69 -13 -286 -13 l-281 0 0 -865 0
-865 560 0 560 0 75 -81 c115 -124 140 -151 273 -292 69 -73 138 -146 154
-164 l30 -32 717 3 717 2 76 70 c42 38 93 85 113 104 21 19 82 76 136 125 54
50 112 104 129 120 18 17 60 56 94 88 l62 57 564 0 563 0 0 865 0 865 -284 0
-284 0 -1 38 c0 20 0 213 0 429 l0 392 -290 -1 c-159 -1 -292 1 -295 5 -4 3
-7 198 -7 431 l0 425 -1251 0 -1251 -1 0 -429z m2163 -167 l-3 -257 -903 0
c-497 0 -907 2 -911 5 -10 7 -8 494 2 501 5 4 416 7 913 7 l904 0 -2 -256z
m592 -856 c0 -194 -3 -255 -12 -258 -21 -7 -2972 -3 -2983 4 -7 4 -10 95 -9
255 1 136 2 249 3 251 0 1 676 2 1501 2 l1500 0 0 -254z m570 -1131 l0 -525
-335 0 -335 0 0 159 0 158 193 1 c105 0 200 1 209 1 15 1 17 17 15 168 l-2
168 -377 0 -378 0 0 -369 0 -369 -22 -19 c-13 -10 -43 -38 -68 -62 -25 -23
-79 -73 -120 -111 -42 -39 -127 -118 -191 -177 -63 -59 -126 -116 -139 -128
-23 -20 -34 -20 -565 -20 l-542 0 -53 57 c-52 56 -259 278 -310 333 -14 14
-45 48 -70 73 l-45 48 0 372 0 372 -378 0 -377 0 -1 -25 c-3 -93 1 -303 5
-308 4 -3 97 -6 208 -6 l203 -1 0 -158 0 -157 -335 2 -335 3 -1 515 c0 283 1
518 3 523 3 4 935 7 2074 7 l2069 0 0 -525z"/>
<path d="M1939 2306 c-113 -39 -170 -153 -135 -266 40 -126 205 -177 319 -97
80 56 106 177 57 267 -46 81 -155 125 -241 96z"/>
<path d="M2440 2308 c-75 -20 -135 -90 -146 -169 -16 -120 67 -223 190 -235
140 -14 252 126 211 264 -33 109 -144 170 -255 140z"/>
<path d="M2937 2306 c-147 -43 -195 -230 -88 -343 75 -79 215 -78 295 3 147
149 -5 399 -207 340z"/>
<path d="M3431 2305 c-24 -8 -59 -29 -78 -47 -140 -134 -38 -367 154 -353 59
4 97 21 135 62 146 154 -7 400 -211 338z"/>
</g>
</svg>
