{"asset":{"version":"2.0","generator":"THREE.JS GLTFExporter"},"scenes":[{"nodes":[0],"name":"AuxScene"}],"scene":0,"nodes":[{"mesh":0}],"meshes":[{"primitives":[{"mode":4,"attributes":{"POSITION":0,"NORMAL":1},"material":0}]}],"materials":[{"pbrMetallicRoughness":{"baseColorFactor":[0.5019607843137255,0.5019607843137255,0.5019607843137255,1],"metallicFactor":0,"roughnessFactor":1}}],"accessors":[{"bufferView":0,"componentType":5126,"count":951,"max":[586.9722900390625,9.471317291259766,132.73678588867188],"min":[-178.02767944335938,-8.528682708740234,-338.2632141113281],"type":"VEC3"},{"bufferView":1,"componentType":5126,"count":951,"max":[0.7071068286895752,1,0.9981788396835327],"min":[-0.9128709435462952,0.05395560711622238,-0.9045340418815613],"type":"VEC3"}],"bufferViews":[{"buffer":0,"byteOffset":0,"byteLength":11412,"byteStride":12,"target":34962},{"buffer":0,"byteOffset":11412,"byteLength":11412,"byteStride":12,"target":34962}],"buffers":[{"byteLength":22824,"uri":"data:application/octet-stream;base64,"}]}