{"asset":{"version":"2.0","generator":"THREE.JS GLTFExporter"},"scenes":[{"nodes":[0],"name":"AuxScene"}],"scene":0,"nodes":[{"mesh":0}],"meshes":[{"primitives":[{"mode":4,"attributes":{"POSITION":0,"NORMAL":1},"material":0}]}],"materials":[{"pbrMetallicRoughness":{"baseColorFactor":[0.5019607843137255,0.5019607843137255,0.5019607843137255,1],"metallicFactor":0,"roughnessFactor":1}}],"accessors":[{"bufferView":0,"componentType":5126,"count":9972,"max":[138.65802001953125,34.576812744140625,110.71003723144531],"min":[-152.94198608398438,-52.623191833496094,-121.78997802734375],"type":"VEC3"},{"bufferView":1,"componentType":5126,"count":9972,"max":[0.9214422106742859,1,0.9758824706077576],"min":[-0.9889032244682312,0.0229849461466074,-0.9577062726020813],"type":"VEC3"}],"bufferViews":[{"buffer":0,"byteOffset":0,"byteLength":119664,"byteStride":12,"target":34962},{"buffer":0,"byteOffset":119664,"byteLength":119664,"byteStride":12,"target":34962}],"buffers":[{"byteLength":239328,"uri":"data:application/octet-stream;base64,"}]}